<?xml version="1.0" encoding="utf-8"?>
<!-- Generator: Adobe Illustrator 22.0.1, SVG Export Plug-In . SVG Version: 6.00 Build 0)  -->
<svg version="1.1" id="Layer_1" xmlns="http://www.w3.org/2000/svg" xmlns:xlink="http://www.w3.org/1999/xlink" x="0px" y="0px"
	 viewBox="0 0 290 250" style="enable-background:new 0 0 290 250;" xml:space="preserve">
<style type="text/css">
	.st0{fill:#777777;}
	.st1{fill:#333333;}
</style>
<g>
	<g>
		<path class="st1" d="M13.3,148.2c0.4-1.5,0.6-3,1.3-4.4c0.7-1.6,1.7-3.1,2.8-4.4c2.7-2.9,5.6-5.7,8.6-8.3c3.6-3,7.7-4.4,12.4-2.8
			c2.8,1,5.1,2.7,7.2,4.9c3.9,4.1,7.4,8.7,9.7,13.9c2.5,5.6,1.6,10.6-2.6,15.1c-1.5,1.6-7.2,7.3-8.7,8.9c-1.4,1.4-2,3.1-1.7,5.2
			c0.5,3.7,2.4,6.8,4.5,9.7c7.1,10.2,13.2,16.1,22.5,24.3c3.9,3.4,8,6.6,12.6,9c1.3,0.7,2.8,1.2,4.3,1.6c2.4,0.6,4.5,0,6.3-1.9
			c1.4-1.5,7-7,8.5-8.4c4.4-4.2,9.3-5.4,14.9-2.8c7.1,3.3,13.4,7.7,17.8,14.3c2.9,4.4,2.7,9.1-0.3,13.3c-2.5,3.4-5.6,6.3-8.5,9.5
			c-4.8,5.4-10.9,5.4-17.3,4.6c-9.6-1.3-18.3-5.1-26.7-9.8C70.4,234.1,61.1,227,52.4,219c-7-6.4-10.7-10.6-16.6-18.1
			c-6.3-8-11.8-16.5-16.1-25.7c-3-6.5-5.3-13.2-6.2-20.4c0-0.4-0.2-0.7-0.2-1.1C13.3,151.9,13.3,150.1,13.3,148.2z"/>
	</g>
	<g>
		<path class="st1" d="M139.9,84.3c-9-3.5-15.8-3.5-28.8-3.5v25.7h51.6C159.4,102,149,87.8,139.9,84.3z"/>
	</g>
	<g>
		<g>
			<path class="st1" d="M276.6,99.8C274.7,44.7,228.5,0,173.4,0S75.2,44.7,77.1,99.8c0.6,17.4,5.7,33.8,14,48.1l-10.1,37.7
				c-1.6,6.1,3.9,11.6,10,10l37.7-10.1c15.3,8.9,32.9,14.1,51.6,14.1C235.4,199.6,278.5,154.9,276.6,99.8z M195.2,38.9
				c-0.5-2.8-3.3-4.5-3.3-4.5c-1.7-1.1-2.3-3.3-1.2-5c1-1.7,3.2-2.3,5-1.3c0.6,0.3,5.5,3.4,6.7,9.3c0.8,4-0.3,8.1-3.4,12.2
				c-2,2.7-2.8,5-2.4,6.8c0.4,1.8,1.9,2.8,1.9,2.8c1.8,1,2.4,3.2,1.4,5c-0.7,1.2-1.9,1.8-3.2,1.8c-0.6,0-1.2-0.2-1.8-0.5
				c-0.4-0.3-4.4-2.6-5.5-7.6c-0.8-4,0.4-8.2,3.7-12.7C194.9,42.9,195.6,40.8,195.2,38.9z M177.3,45.5c2.5-3.3,3.4-6.4,2.9-9.1
				c-0.8-4-4.6-6.4-4.7-6.4c-1.7-1-2.3-3.3-1.3-5c1-1.7,3.3-2.3,5-1.3c0.3,0.2,6.6,4,8.1,11.2c1,4.8-0.4,9.8-4.2,14.9
				c-2.7,3.6-3.8,6.9-3.3,9.5c0.6,2.9,2.9,4.3,3,4.4c1.7,1,2.3,3.3,1.3,5c-0.7,1.2-1.9,1.8-3.1,1.8c-0.6,0-1.2-0.2-1.8-0.5
				c-0.5-0.3-5.2-3.1-6.5-9.1C171.7,56.1,173.2,50.9,177.3,45.5z M163.5,38.9c-0.5-2.8-3.3-4.5-3.3-4.5c-1.7-1.1-2.2-3.3-1.2-5
				c1-1.7,3.2-2.3,5-1.3c0.6,0.3,5.5,3.4,6.7,9.3c0.8,4-0.3,8.1-3.4,12.2c-1.9,2.6-2.8,5-2.4,6.8c0.4,1.9,1.9,2.8,2,2.9
				c1.7,1,2.3,3.3,1.3,5c-0.7,1.2-1.9,1.8-3.1,1.8c-0.6,0-1.2-0.2-1.8-0.5c-0.4-0.3-4.4-2.6-5.5-7.6c-0.8-4,0.4-8.2,3.7-12.7
				C163.1,42.9,163.8,40.8,163.5,38.9z M184.1,182.9c-10.1,0-18.2-8.2-18.2-18.2c0-10.1,8.2-18.2,18.2-18.2
				c10.1,0,18.2,8.2,18.2,18.2C202.3,174.8,194.2,182.9,184.1,182.9z M219.9,159.2c-0.8,0-4,0-9.2,0c-1.7-12.4-13-22-26.6-22
				c-13.7,0-24.9,9.6-26.6,22c-12,0-24.6,0-36.9,0c-15.9-15.1-26.2-36.2-27-59.4c-0.5-13.3,2.2-25.8,7.3-36.9c2.2,0,4.4,0.1,6.6,0.1
				c18.9,0,27.4-0.5,40.3,5.6c10.8,5.1,24,22.1,31.5,30.7c5.5-6.3,18.9-20.8,26.7-24.6c3.1-1.6,11-1.9,17-1.9c0,0,0,0,0,0
				c2.8,0,5.1,2.3,5.1,5.1c0,2.8-2.3,5.1-5.1,5.1c-5.4,0-11.2,0.5-12.6,0.9c-4.9,2.5-15.1,12.8-22.2,20.8c15.2,4.4,25.8,8,30.8,13.5
				c5.5,6.1,9,12.2,9.5,21.5C228.9,149,225.9,159.2,219.9,159.2z"/>
		</g>
	</g>
</g>
</svg>
